<svg preserveAspectRatio='none' width="100%" height="100%" viewBox="0 0 406 384" fill="none" xmlns="http://www.w3.org/2000/svg">
<path d="M189.152 1.65506C217.319 1.4884 276.452 1.25506 287.652 1.65506C296.708 1.97847 350.823 3.19523 391.652 4.0898L394.652 17.1551L364.152 22.1551C376.819 23.3217 402.352 27.3551 403.152 34.1551C404.152 42.6551 399.152 131.655 403.152 136.155C407.058 140.548 408.58 174.967 382.128 176.13C387.899 176.959 397.163 185.567 399.652 216.155C394.152 225.822 383.352 248.855 384.152 263.655C384.952 278.455 383.152 271.488 382.152 266.155L364.152 277.655L384.152 286.655C388.652 303.155 397.052 337.655 394.652 343.655C382.319 341.988 354.252 340.455 340.652 347.655L391.652 353.155L394.652 372.655H364.152C346.152 377.055 277.986 379.822 246.152 380.655C241.652 384.155 140.152 384.655 116.652 380.655C93.1524 376.655 23.1524 368.655 12.1524 368.655C18.5524 368.255 9.48573 303.488 4.1524 271.155C2.1524 268.488 0.952401 263.255 12.1524 263.655C26.1524 264.155 54.1524 250.655 49.1524 250.655H20.1524C11.3524 251.055 11.1524 245.488 12.1524 242.655C16.1524 237.655 21.1524 227.655 9.1524 227.655C-2.8476 227.655 0.819062 210.322 4.1524 201.655L12.1524 144.155L9.1524 88.155L49.1524 79.155C35.8191 76.4883 9.1524 70.855 9.1524 69.655V42.6551L17.1524 34.1551C12.3524 34.1551 9.81907 14.9762 9.1524 5.38679C38.3128 6.31511 86.1787 7.47963 94.6524 4.65506C104.252 1.45506 161.652 1.32173 189.152 1.65506Z" fill="#EBCF9D"/>
<path d="M287.652 1.65506C276.452 1.25506 217.319 1.4884 189.152 1.65506C161.652 1.32173 104.252 1.45506 94.6524 4.65506C86.1787 7.47963 38.3128 6.31511 9.1524 5.38679C9.81907 14.9762 12.3524 34.1551 17.1524 34.1551L9.1524 42.6551C9.1524 51.1551 9.1524 68.455 9.1524 69.655C9.1524 70.855 35.8191 76.4883 49.1524 79.155L9.1524 88.155L12.1524 144.155L4.1524 201.655C0.819062 210.322 -2.8476 227.655 9.1524 227.655C21.1524 227.655 16.1524 237.655 12.1524 242.655C11.1524 245.488 11.3524 251.055 20.1524 250.655C28.1524 250.655 45.1524 250.655 49.1524 250.655C54.1524 250.655 26.1524 264.155 12.1524 263.655C0.952401 263.255 2.1524 268.488 4.1524 271.155C9.48573 303.488 18.5524 368.255 12.1524 368.655C23.1524 368.655 93.1524 376.655 116.652 380.655C140.152 384.655 241.652 384.155 246.152 380.655C277.986 379.822 346.152 377.055 364.152 372.655H394.652L391.652 353.155L340.652 347.655C354.252 340.455 382.319 341.988 394.652 343.655C397.052 337.655 388.652 303.155 384.152 286.655L364.152 277.655L382.152 266.155C383.152 271.488 384.952 278.455 384.152 263.655C383.352 248.855 394.152 225.822 399.652 216.155C396.852 181.755 385.486 175.155 380.152 176.155C408.652 176.655 407.152 140.655 403.152 136.155C399.152 131.655 404.152 42.6551 403.152 34.1551C402.352 27.3551 376.819 23.3217 364.152 22.1551L394.652 17.1551L391.652 4.0898C350.823 3.19523 296.708 1.97847 287.652 1.65506Z" stroke="#917464"/>
</svg>

