<svg width="100%" height="100%" viewBox="0 0 310 410" fill="none" xmlns="http://www.w3.org/2000/svg">
<path d="M181.638 367.011C179.508 369.296 176.978 369.756 175.48 369.672C167.992 369.253 166.088 367.477 166.163 366.146L163.666 366.007L162.634 384.478C162.5 386.874 172.525 386.7 177.555 386.314L177.778 382.32C183.478 387.847 195.591 389.158 200.906 389.622C204.909 389.679 215.248 391.644 218.547 387.604C220.159 385.628 218.729 384.343 217.743 384.053C194.587 377.25 190.373 372.007 187.074 368.317C184.435 365.365 182.351 366.217 181.638 367.011Z" fill="black"/>
<path d="M133.414 369.236C135.698 371.272 138.137 371.453 139.538 371.207C146.544 369.978 148.125 368.008 147.894 366.695L150.23 366.285L153.428 384.507C153.842 386.87 144.374 387.788 139.588 387.951L138.896 384.011C134.19 390.117 122.934 392.735 117.98 393.774C114.215 394.265 104.708 397.339 101.113 393.688C99.3556 391.903 100.549 390.471 101.443 390.077C122.445 380.807 125.785 375.144 128.449 371.123C130.581 367.906 132.647 368.525 133.414 369.236Z" fill="black"/>
<path d="M129.11 183.34L131.592 206.008C133.111 213.984 131.185 289.347 129.495 343.369C128.991 350.714 127.499 366.216 125.568 369.458C123.637 372.7 124.175 374.489 124.685 374.978C129.043 376.079 140.31 375.968 150.515 366.716C148.906 291.078 155.468 248.549 161.04 229.652L161.59 370.096C164.618 371.397 173.185 374.446 183.225 376.233C195.776 378.467 197.88 374.763 195.169 373.478C191.128 371.564 191.445 370.826 191.083 369.468C190.891 368.267 189.795 365.323 186.948 363.151C184.101 360.979 182.423 346.313 181.94 339.252C181.319 294.862 182.636 221.395 183.597 182.181L129.11 183.34Z" fill="#41403E"/>
<path d="M164.892 219.759C163.766 221.677 162.434 224.925 161.04 229.652M161.04 229.652C155.468 248.549 148.906 291.078 150.515 366.716C140.31 375.968 129.043 376.079 124.685 374.978C124.175 374.489 123.637 372.7 125.568 369.458C127.499 366.216 128.991 350.714 129.495 343.369C131.185 289.347 133.111 213.984 131.592 206.008L129.11 183.34L183.597 182.181C182.636 221.395 181.319 294.862 181.94 339.252C182.423 346.313 184.101 360.979 186.948 363.151C189.795 365.323 190.891 368.267 191.083 369.468C191.445 370.826 191.128 371.564 195.169 373.478C197.88 374.763 195.776 378.467 183.225 376.233C173.185 374.446 164.618 371.397 161.59 370.096L161.04 229.652Z" stroke="black"/>
<path d="M165.5 118.5L147 101.5L144.5 94.5L179.5 81L165.5 118.5Z" fill="#E3A8A2"/>
<path d="M164.5 130.5L139.5 106L136 100.5L145 96.5L155 101L161.5 108.5C162.5 109 163.053 111.894 163.5 111C164 110 167 102 173 95.5L185 99.5L164.5 130.5Z" fill="#EDE3DE"/>
<path d="M163.5 111C163.5 113.955 163 120.691 163 124" stroke="black" stroke-width="0.5"/>
<path d="M179.5 198.5C162.7 208.9 145.5 203.833 139 200V189H181L179.5 198.5Z" fill="#703030" stroke="black" stroke-width="0.5"/>
<path d="M163 197.645C156 205 143.833 198.571 136 192.645L139 83.5C153.4 103.945 155.667 119.481 161 123C173.4 111 175.833 89.0373 177 82L188.5 99.8633V191.533C186.833 192.645 182.2 195.423 177 197.645C171.8 199.867 165.167 199.497 163 197.645Z" fill="#713030"/>
<path d="M163 197.645C156 205 143.833 198.571 136 192.645L139 83.5C153.4 103.945 155.667 119.481 161 123M163 197.645C156.6 186.978 158.333 143.742 161 123M163 197.645C165.167 199.497 171.8 199.867 177 197.645C182.2 195.423 186.833 192.645 188.5 191.533V99.8633L177 82C175.833 89.0373 173.4 111 161 123" stroke="black" stroke-width="0.5"/>
<path d="M174.5 111.5C173.167 114.833 167.5 123 164.5 126.5C161.833 145.167 161 183.5 164.5 193C164.833 194.167 168.5 198.5 176.5 196.5" stroke="black" stroke-width="0.5"/>
<path d="M146 103.5C149.5 110 154.9 123.6 160.5 128" stroke="black" stroke-width="0.5"/>
<circle cx="161" cy="143" r="0.5" stroke="black"/>
<circle cx="163" cy="125" r="0.5" stroke="black"/>
<circle cx="164" cy="196" r="0.5" stroke="black"/>
<circle cx="161" cy="179" r="0.5" stroke="black"/>
<circle cx="160" cy="160" r="0.5" stroke="black"/>
<path d="M212.31 228.5C209.5 233 202.751 232.178 199.5 231.122L196.5 228.17L194 108.738L199.143 93.5039C202 88.9336 209.709 147.054 212.31 167.465V228.5Z" fill="#726666" stroke="black"/>
<path d="M212.5 168.153C210 172.596 209.5 175.77 209.5 183.387" stroke="black"/>
<path d="M112 93.5L143 73C149.5 89.8333 147.9 138.8 147.5 194C147.1 249.2 144.333 271.5 141 276.5C123.8 280.1 118 273.667 112 270V229.33V125.5V93.5Z" fill="#736666" stroke="black"/>
<path d="M199.542 93L168.542 69C174.89 86.8333 178.5 158 170.542 272.5C187.742 276.1 193.542 269.667 199.542 266L198.5 127C196.9 115.8 198.528 99.6667 199.542 93Z" fill="#726666" stroke="black"/>
<path d="M210.684 236.531L210.684 230.5C205.778 232.871 204.111 231.911 201 231.437C200.869 234.481 200.348 234.082 199.977 234.781C195.936 240.272 196.024 246.356 196.573 248.712C196.445 250.731 196.156 255.334 196.024 257.595C195.892 259.856 196.335 260.287 196.573 260.22C199.483 262.037 198.989 254.028 199.208 253.355C199.384 252.817 199.556 247.635 200.444 247.236C202.597 250.682 202.155 253.153 201.899 254.768C201.591 256.922 201.771 259.704 201.899 260.825C201.46 261.525 200.691 263.001 200.361 263.652C199.439 264.675 198.659 265.648 198.385 266.007C198.077 267.891 199.575 267.6 200.361 267.218C200.889 267.595 202.265 267.061 202.887 266.747C203.601 265.805 205.149 263.867 205.632 263.652C206.116 263.436 206.968 262.126 207.334 261.498C209.311 261.498 209.476 259.345 209.75 257.595C210.717 256.949 211.507 252.57 211.782 250.461C211.946 250.215 212.177 249.304 211.782 247.635C211.386 245.966 210.885 239.537 210.684 236.531Z" fill="#E3A8A2"/>
<path d="M209.75 257.595C210.717 256.949 211.507 252.57 211.782 250.461C211.946 250.215 212.177 249.304 211.782 247.635C211.386 245.966 210.885 239.537 210.684 236.531L210.684 230.5C205.778 232.871 204.111 231.911 201 231.437C200.869 234.481 200.348 234.082 199.977 234.781C195.936 240.272 196.024 246.356 196.573 248.712C196.445 250.731 196.156 255.334 196.024 257.595C195.892 259.856 196.335 260.287 196.573 260.22C199.483 262.037 198.989 254.028 199.208 253.355C199.384 252.817 199.556 247.635 200.444 247.236C202.597 250.682 202.155 253.153 201.899 254.768C201.591 256.922 201.771 259.704 201.899 260.825C201.46 261.525 200.691 263.001 200.361 263.652C199.439 264.675 198.659 265.648 198.385 266.007C198.077 267.891 199.575 267.6 200.361 267.218M209.75 257.595C209.476 259.345 209.311 261.498 207.334 261.498M209.75 257.595C209.857 256.895 210.82 252.368 211.288 250.192M207.334 261.498C206.968 262.126 206.116 263.436 205.632 263.652C205.149 263.867 203.601 265.805 202.887 266.747C202.265 267.061 200.889 267.595 200.361 267.218M207.334 261.498C207.73 257.299 209 253.064 209.586 251.471C210.376 250.609 210.135 249.272 209.915 248.712M200.361 267.218C201.734 265.94 204.534 262.911 205.248 262.171C205.819 261.579 206.108 256.989 206.181 254.768L206.785 253.355" stroke="#BA6C62" stroke-width="0.5"/>
<path d="M212 229C210.5 230.5 207 234 199.5 231" stroke="black"/>
<path d="M140.432 256.47V213.607L100.188 201L90.5094 204.026V247.393L129.872 260L140.432 256.47Z" fill="#F9F1E6"/>
<path d="M129.872 216.632L140.432 213.607M140.432 213.607V256.47L129.872 260L90.5094 247.393V204.026L100.188 201L140.432 213.607Z" stroke="#F3E6D3" stroke-width="0.5"/>
<path d="M133.301 262L90 248.5V201L133.301 214.5V238.25V259L139.923 256.5V213.5L100.188 201H99.1695V198L141.961 211.5V259L133.301 262Z" fill="#1E2E5E" stroke="black" stroke-width="0.5"/>
<path d="M101 236.5V228V217H111.5V228C111.5 234.4 114.333 237.833 116.5 238C121.5 238 123.5 244.5 124.5 247C125.3 249 129 251.5 131.5 253.5C130.7 257.9 127 255.333 125 253.5C123.667 252 121.394 249.935 120.5 251.5C118.5 255 120 256.5 121 258.5L125 260L121.5 261.5C113 260.5 107.833 256.667 108 256L105 252C104.2 244.4 102.333 239.333 101 236.5Z" fill="#E3A8A2" stroke="#BA6C62" stroke-width="0.5"/>
<path d="M142.66 105.587C141.013 103.112 144.719 88.8311 146.778 82H152.131C150.758 83.8044 149.084 88.96 153.366 95.1467C157.186 100.665 161.053 107.196 162.915 110.464C163.134 110.804 163.33 111.15 163.5 111.5C163.337 111.208 163.141 110.86 162.915 110.464C160.477 106.676 155.256 103.621 153.366 103.267C151.719 102.957 151.033 101.076 150.896 100.173C149.248 98.008 144.719 102.88 142.66 105.587Z" fill="#EDE3DE"/>
<path d="M146.778 82C144.719 88.8311 141.013 103.112 142.66 105.587C144.719 102.88 149.248 98.008 150.896 100.173C151.033 101.076 151.719 102.957 153.366 103.267C155.425 103.653 161.441 107.247 163.5 111.5C161.99 108.793 157.649 101.333 153.366 95.1467C149.084 88.96 150.758 83.8044 152.131 82H146.778Z" stroke="black" stroke-width="0.5"/>
<path d="M180.166 102.815C181.01 100.09 174.518 87.0929 171.167 80.9351L166.563 82.0406C168.161 83.4961 170.794 88.1185 168.542 94.9649C166.559 100.994 164.68 106.964 163.8 110.297C163.673 110.688 163.571 111.089 163.5 111.5C163.58 111.152 163.681 110.748 163.8 110.297C165.072 106.382 168.892 103.515 170.421 102.79C171.766 102.152 171.921 100.197 171.83 99.2987C172.746 96.8719 177.769 100.632 180.166 102.815Z" fill="#EDE3DE"/>
<path d="M171.167 80.9351C174.518 87.0929 181.01 100.09 180.166 102.815C177.769 100.632 172.746 96.8719 171.83 99.2987C171.921 100.197 171.766 102.152 170.421 102.79C168.739 103.588 164.287 106.976 163.5 111.5C164.172 108.58 166.29 101.811 168.542 94.9649C170.794 88.1185 168.161 83.4961 166.563 82.0406L171.167 80.9351Z" stroke="black" stroke-width="0.5"/>
<path d="M152.317 22.5127C129.917 35.3127 134.983 60.1794 140.317 71.0127C142.65 73.6794 150.817 78.6128 164.817 77.0128C178.817 75.4128 181.317 58.3461 180.817 50.0127C180.65 35.5127 174.717 9.71275 152.317 22.5127Z" fill="#E3A8A2"/>
<path d="M176.317 21.5128C164.317 10.5128 147.817 14.1794 145.317 16.5127C140.817 18.8461 127.317 28.5127 125.817 52.5127C125.535 57.0127 124.417 64.0128 120.817 68.0128C116.317 73.0127 118.317 79.5127 119.317 81.5127C119.983 78.8461 120.373 75.0128 124.817 70.0128C123.817 72.5128 121.217 77.5128 122.817 81.5127C124.817 86.5128 128.817 86.5128 131.817 87.0128L139.827 85.0127C143.338 81.4839 146.595 75.9993 146.817 68.0128C143.15 63.5128 135.817 54.0128 145.317 37.0128C151.617 25.7378 159.317 25.0128 160.317 30.5128C164.983 28.5128 170.255 27.0128 174.317 36.0128C178.829 46.0128 180.517 59.2128 173.317 68.0128C170.276 72.5128 166.868 74.7127 173.317 81.5127H174.817H188.817C189.983 81.5127 192.817 80.6127 194.817 77.0127C196.817 73.0127 194.317 69.5127 192.817 68.0128C191.617 66.8128 187.817 60.5906 187.817 50.5127C187.817 34.0128 180.983 26.8461 176.317 21.5128Z" fill="#F9F1E6" stroke="#917464" stroke-width="0.5"/>
<path d="M140.817 88.5128C130.817 78.9128 139.65 67.8461 143.817 63.5128L145.817 67.0128L158.817 65.0128L172.317 70.0128L176.317 63.5128C179.817 67.8461 184.717 78.9128 176.317 88.5128C167.917 98.1128 160.15 99.1794 157.317 98.5128C155.983 99.1794 150.817 98.1128 140.817 88.5128Z" fill="#F9F1E6" stroke="#917464" stroke-width="0.3"/>
<path d="M159.317 61.5128C160.917 57.1128 161.15 49.0128 159.317 46.5128C158.65 45.3461 157.917 42.7128 160.317 41.5128" stroke="#BA6C62" stroke-width="0.5"/>
<path d="M164.568 70.8646C160.071 74.732 155.776 72.476 154.191 70.8646C154.047 70.7407 153.845 70.4928 154.191 70.4928C157.996 69.6003 162.982 70.1209 165 70.4928L164.568 70.8646Z" fill="#D38680"/>
<path d="M154.191 70.4928C157.996 69.6003 162.982 70.1209 165 70.4928L164.568 70.8646C160.071 74.732 155.776 72.476 154.191 70.8646C154.047 70.7407 153.845 70.4928 154.191 70.4928ZM154.191 70.4928C154.191 70.4928 154.191 70.4928 154.191 70.4928Z" stroke="#BA6C62"/>
<path d="M151.817 61.0128C144.217 65.8128 146.15 71.0128 145.817 74.0128C153.817 70.0128 167.65 70.5128 172.317 74.0128C172.317 66.4128 169.317 63.3461 166.317 61.5128L158.817 64.0128L151.817 61.0128Z" fill="#F9F1E6" stroke="#917464" stroke-width="0.3"/>
<path d="M160.817 30.5128C160.817 17.5128 147.817 11.5128 134.817 40.5128C133.15 44.8461 130.517 54.8128 133.317 60.0128C136.117 65.2128 133.483 70.1794 131.817 72.0128" stroke="#917464" stroke-width="0.4"/>
<path d="M152.317 62.0126C149.917 59.2126 152.817 58.3461 154.317 57.5127H162.317C164.947 53.8959 166.317 60.846 165.317 62.0126C164.317 62.0126 161.217 63.8126 160.817 65.0126C160.317 66.5126 157.317 67.5126 156.317 65.0126C155.517 63.0126 153.15 61.6793 152.317 62.0126Z" fill="#E3A8A2"/>
<path d="M165.317 62.0127C165.15 60.8461 164.117 59.6127 161.317 64.0127C162.317 63.3461 164.517 62.0127 165.317 62.0127Z" fill="black"/>
<path d="M156.817 65.0128C155.817 60.5128 153.483 60.9236 153.317 62.4301C154.917 61.964 156.317 64.6243 156.817 66.0128V65.0128Z" fill="black"/>
<path d="M154.317 57.5127C153.317 56.0128 150.817 57.0128 152.317 62.0128C153.317 62.0126 155.517 63.0126 156.317 65.0126C157.317 67.5126 160.317 66.5126 160.817 65.0126C161.217 63.8126 164.317 62.0126 165.317 62.0126C166.317 60.846 164.947 53.8959 162.317 57.5127" stroke="#BA6C62" stroke-width="0.5"/>
<path d="M154.167 50.1239C154.167 52.169 152.24 53.8628 149.817 53.8628C147.393 53.8628 145.467 52.169 145.467 50.1239C145.467 49.1062 145.94 48.3744 146.714 47.8901C147.496 47.401 148.59 47.1628 149.817 47.1628C151.043 47.1628 152.137 47.401 152.919 47.8901C153.694 48.3744 154.167 49.1062 154.167 50.1239Z" fill="#F8EEE4" stroke="black" stroke-width="0.3"/>
<path d="M153.85 50C153.85 51.6008 152.773 52.85 151.5 52.85C150.227 52.85 149.15 51.6008 149.15 50C149.15 49.1856 149.303 48.6006 149.6 48.2212C149.892 47.8493 150.342 47.65 151 47.65C151.724 47.65 152.441 47.8539 152.973 48.2491C153.501 48.6411 153.85 49.223 153.85 50Z" fill="black" stroke="black" stroke-width="0.3"/>
<circle cx="150" cy="49" r="1" fill="#F9F1E6"/>
<path d="M173.167 50.1239C173.167 52.169 171.24 53.8628 168.817 53.8628C166.393 53.8628 164.467 52.169 164.467 50.1239C164.467 49.1062 164.94 48.3744 165.714 47.8901C166.496 47.401 167.59 47.1628 168.817 47.1628C170.043 47.1628 171.137 47.401 171.919 47.8901C172.694 48.3744 173.167 49.1062 173.167 50.1239Z" fill="#F8EEE4" stroke="black" stroke-width="0.3"/>
<path d="M172.85 50C172.85 51.6008 171.773 52.85 170.5 52.85C169.227 52.85 168.15 51.6008 168.15 50C168.15 49.2073 168.417 48.6244 168.834 48.2389C169.253 47.8515 169.839 47.65 170.5 47.65C171.161 47.65 171.747 47.8515 172.166 48.2389C172.583 48.6244 172.85 49.2073 172.85 50Z" fill="black" stroke="black" stroke-width="0.3"/>
<circle cx="169" cy="49" r="1" fill="#F9F1E6"/>
<path d="M153.817 43.5127C155.817 44.7127 154.65 46.0127 153.817 46.5127C149.017 44.9127 145.15 47.1794 143.817 48.5127L141.817 50.0127C142.217 48.4127 142.65 47.6794 142.817 47.5127C144.317 45.0127 151.317 42.0127 153.817 43.5127Z" fill="black" stroke="#BA6C62" stroke-width="0.3"/>
<path d="M164.496 43.4206C162.36 44.6376 163.606 45.956 164.496 46.4631C169.625 44.8404 173.755 47.1392 175.18 48.4915L177.317 50.0128C176.889 48.3901 176.426 47.6463 176.248 47.4773C174.646 44.9419 167.167 41.8993 164.496 43.4206Z" fill="black" stroke="#BA6C62" stroke-width="0.3"/>
<path d="M151.317 74.0127C148.65 73.8461 144.717 76.1127 150.317 86.5127C151.317 88.0127 152.917 91.5127 151.317 93.5127" stroke="#917464" stroke-width="0.3"/>
<path d="M165.995 74.0211C168.662 73.8544 172.595 76.1211 166.995 86.5211C165.995 88.0211 164.395 91.5211 165.995 93.5211" stroke="#917464" stroke-width="0.3"/>
<path d="M154.33 75.0196C151.385 74.8829 147.04 76.7419 153.226 85.2716C154.33 86.5019 156.098 89.3724 154.33 91.0128" stroke="#917464" stroke-width="0.3"/>
<path d="M145.317 53.5128C146.817 55.0128 150.817 57.1128 154.817 53.5128" stroke="#BA6C62" stroke-width="0.3"/>
<path d="M164.317 54.0128C165.738 55.522 169.527 57.6349 173.317 54.0128" stroke="#BA6C62" stroke-width="0.3"/>
<path d="M95.5781 164.5L111.078 94C114.937 91.8334 120.578 103 123.5 126L120.578 168.5L117.078 229.5C114.875 229.72 112.881 229.823 111.078 229.83C99.7866 229.873 96.0093 226.156 95.5781 224C93.9114 209.167 90.4781 179.1 90.0781 177.5C89.6781 175.9 90.9114 175.167 91.5781 175C91.0781 174.167 90.4781 172.4 92.0781 172C93.6781 171.6 95.0781 166.833 95.5781 164.5Z" fill="#736666" stroke="black"/>
<path d="M121 161C120.524 162.089 119.181 171.446 118 174C116.819 176.554 114.447 180.343 113.5 182" stroke="black"/>
</svg>
